PathFileType	4	(X/Y/Z)	D:\TRACE\v60_Jaco2_6-2-23\BothDRS_Motion1_3-v60.trc
DataRate	CameraRate	NumFrames	NumMarkers	Units	OrigDataRate	OrigDataStartFrame	OrigNumFrames
100.00	100.00	      17	9	mm	100.00	3537	      7073
Frame#	Time	front left toe			Front right toe			aft left toe			aft right toe			Arm			FL body			FR body			AL Body			AR Body			
		X1	Y1	Z1	X2	Y2	Z2	X3	Y3	Z3	X4	Y4	Z4	X5	Y5	Z5	X6	Y6	Z6	X7	Y7	Z7	X8	Y8	Z8	X9	Y9	Z9	

3537	35.360	-73.29488	0.82704	-352.68243	303.06277	38.13136	-384.22443	30.81148	66.00146	295.66226	391.98386	22.95722	209.77934	139.26451	1068.19690	-732.51477	15.55748	554.81354	-485.58636	173.54959	549.40063	-511.08929	164.95593	577.92462	448.49487	321.96152	567.36499	425.27557	
3538	35.370	-74.02231	0.72503	-352.58673	302.63477	28.58671	-383.93878	30.81308	55.61855	295.31726	391.47360	23.11141	209.95987	138.33543	1067.65552	-732.23999	14.73304	554.77838	-485.16226	172.17029	549.17657	-510.26144	164.86876	577.85907	448.86481	321.81577	567.93628	426.34445	
3539	35.380	-75.22767	0.98193	-352.73349	301.93146	19.55351	-383.89005	30.33127	46.43943	294.88565	390.31659	22.81253	210.12157	137.09486	1067.51086	-732.05463	13.97460	554.70953	-484.76276	171.95789	549.29303	-510.45367	164.61894	577.69281	449.13486	320.17053	567.68292	426.65887	
3540	35.390	-76.09714	1.19858	-352.54901	302.09583	11.65199	-384.02469	29.52650	37.94345	294.15469	389.43121	22.72870	210.25031	135.80945	1067.22583	-731.77081	13.07091	554.78815	-484.45999	171.74994	549.48138	-510.58484	164.12622	577.46649	449.32233	319.94901	567.01776	425.85620	
3541	35.400	-77.00037	1.27524	-352.59183	301.92288	4.97016	-384.62543	28.69455	30.46349	293.26123	388.84579	22.69814	210.25075	134.14232	1067.53516	-731.42389	12.30265	554.61121	-484.07446	170.17592	549.36511	-510.29132	163.84421	577.26904	449.50613	319.68896	566.82574	425.99203	
3542	35.410	-77.73166	1.39432	-352.58429	301.47296	3.59449	-386.92987	27.64125	24.90264	291.89569	387.76550	22.36271	210.14470	132.70685	1067.79224	-731.18591	11.75393	554.55737	-484.02344	169.81876	549.84546	-511.10004	163.67592	576.94263	449.72946	319.34930	566.72528	425.87976	
3543	35.420	-78.57948	1.46050	-352.53201	300.33218	0.88897	-386.70770	25.76500	26.35517	290.16833	386.70776	22.39306	210.12248	131.49069	1068.34705	-730.93494	10.58218	555.04437	-483.83279	168.86644	550.35052	-510.81787	164.03975	576.43842	449.63364	318.84363	567.23920	426.67822	
3544	35.430	-79.42242	1.69908	-352.40576	299.73471	0.82785	-387.09158	24.79583	23.38252	291.04749	385.50604	22.58331	210.14607	130.36996	1069.10010	-730.57971	9.10346	555.61285	-483.83337	167.71988	550.84607	-510.28680	163.10059	577.84155	449.58563	319.55991	567.74030	425.83609	
3545	35.440	-80.13152	2.21447	-352.65967	298.60782	1.26632	-386.74078	23.13074	24.31158	290.87109	384.32907	22.63432	209.74858	128.56058	1069.95667	-730.70013	7.84965	556.22278	-483.41626	166.65643	551.55133	-510.06787	162.76942	579.40997	449.70465	318.00980	569.08911	425.69830	
3546	35.450	-81.58179	4.14062	-352.18439	297.52893	0.63069	-386.73590	22.46859	23.95029	291.43216	383.33099	25.06670	209.73572	126.93671	1070.56335	-730.78394	6.50987	556.60956	-482.81335	165.01022	552.13049	-509.95355	162.49936	581.14673	449.91507	318.76025	570.60791	425.68127	
3547	35.460	-79.89067	7.58312	-350.57980	296.32825	0.89267	-386.60580	21.67522	22.36004	291.73035	380.40115	28.11993	212.77663	124.57700	1071.06921	-731.52283	5.06242	557.40918	-482.54889	162.97215	552.97784	-509.46390	162.26851	581.75525	449.91736	317.58264	571.90912	426.54239	
3548	35.470	-77.21075	11.61094	-346.77271	295.33728	1.10830	-386.65540	20.71745	23.06971	290.99280	376.22803	32.41237	217.99948	122.14523	1071.25586	-731.70282	3.61722	558.01050	-482.58112	161.15483	553.31781	-508.93839	162.20699	582.21954	449.91455	317.30826	572.12695	425.49335	
3549	35.480	-75.54790	21.53979	-345.92834	294.15884	0.85624	-387.11273	19.74300	22.98877	291.32578	373.19089	41.99084	219.34962	119.78462	1071.28345	-731.39722	2.37288	558.22705	-482.36938	160.41832	553.57629	-509.58023	161.86458	582.95209	449.71188	317.18195	572.63373	425.34296	
3550	35.490	-75.08886	30.73728	-345.24918	293.37238	0.79646	-386.68073	18.95633	22.76178	291.61353	369.93793	51.96888	219.81282	117.47745	1071.52209	-731.49518	1.34032	558.06610	-482.25400	158.89203	553.50775	-509.41071	161.56531	583.10529	449.86829	316.49042	573.22687	425.36136	
3551	35.500	-77.19044	43.03970	-345.16699	292.67099	0.77118	-386.43890	17.80215	22.75678	291.61075	369.62885	63.82612	218.55948	115.54347	1071.52246	-731.38995	0.11584	557.39337	-481.98044	157.67746	553.16913	-508.75067	160.58041	583.45703	449.95627	315.71033	573.64398	425.49496	
3552	35.510	-78.86561	54.53312	-345.24252	291.57007	0.94395	-386.63354	16.52159	22.70245	291.84641	372.00586	76.63354	217.09674	113.75872	1071.28101	-731.36487	-0.84497	557.19971	-481.71677	156.68629	553.13617	-509.20291	160.00507	582.75433	450.01566	314.72549	573.31946	425.73505	
3553	35.520	-80.95624	66.90664	-344.41479	290.85181	0.99734	-386.56714	15.92912	22.12742	291.81821	375.03842	88.92384	216.48407	112.09546	1070.38672	-731.15625	-1.96910	556.60480	-481.54938	155.88031	552.94611	-508.96756	158.75124	582.44684	450.21719	315.07144	573.17407	425.83337	
